<mxfile host="app.diagrams.net" modified="2022-08-11T12:19:07.675Z" agent="5.0 (Windows NT 10.0; Win64; x64) AppleWebKit/537.36 (KHTML, like Gecko) Chrome/103.0.0.0 Safari/537.36" etag="qXune2Zjrly2UC9-CVUH" version="20.2.3" type="github">
  <diagram id="suqcXLcgZrvjEtRWFs_y" name="‫עמוד-1‬">
    <mxGraphModel dx="6710" dy="3055" grid="1" gridSize="10" guides="1" tooltips="1" connect="1" arrows="1" fold="1" page="0" pageScale="1" pageWidth="827" pageHeight="1169" math="0" shadow="0">
      <root>
        <mxCell id="0" />
        <mxCell id="1" parent="0" />
        <mxCell id="hG2k1LQKx2OpyA93TZ5e-1" value="" style="whiteSpace=wrap;html=1;aspect=fixed;flipH=1;" vertex="1" parent="1">
          <mxGeometry x="-890" y="-1080" width="1620" height="1620" as="geometry" />
        </mxCell>
        <mxCell id="hG2k1LQKx2OpyA93TZ5e-2" value="&lt;font style=&quot;font-size: 72px;&quot;&gt;User&lt;/font&gt;" style="shape=umlActor;verticalLabelPosition=bottom;verticalAlign=top;html=1;outlineConnect=0;rotation=0;" vertex="1" parent="1">
          <mxGeometry x="-1580" y="-970" width="560" height="1110" as="geometry" />
        </mxCell>
        <mxCell id="hG2k1LQKx2OpyA93TZ5e-3" value="Application" style="text;html=1;strokeColor=none;fillColor=none;align=center;verticalAlign=middle;whiteSpace=wrap;rounded=0;fontSize=72;" vertex="1" parent="1">
          <mxGeometry x="-30" y="-1030" width="60" height="30" as="geometry" />
        </mxCell>
        <mxCell id="hG2k1LQKx2OpyA93TZ5e-4" value="&lt;font style=&quot;font-size: 48px;&quot;&gt;Look at user&#39;s profile picture&lt;/font&gt;" style="ellipse;whiteSpace=wrap;html=1;fontSize=72;rotation=0;" vertex="1" parent="1">
          <mxGeometry x="-360" y="-890" width="520" height="320" as="geometry" />
        </mxCell>
        <mxCell id="hG2k1LQKx2OpyA93TZ5e-11" value="&lt;font style=&quot;font-size: 48px;&quot;&gt;Write a post to Facbook&lt;/font&gt;" style="ellipse;whiteSpace=wrap;html=1;fontSize=72;rotation=0;" vertex="1" parent="1">
          <mxGeometry x="-360" y="-490" width="520" height="320" as="geometry" />
        </mxCell>
        <mxCell id="hG2k1LQKx2OpyA93TZ5e-12" value="&lt;font style=&quot;font-size: 48px;&quot;&gt;Look at all posts posted by the user&lt;/font&gt;" style="ellipse;whiteSpace=wrap;html=1;fontSize=72;rotation=0;" vertex="1" parent="1">
          <mxGeometry x="160" y="-1050" width="520" height="320" as="geometry" />
        </mxCell>
        <mxCell id="hG2k1LQKx2OpyA93TZ5e-13" value="&lt;font style=&quot;font-size: 48px;&quot;&gt;Look at all albums posted by the user&lt;/font&gt;" style="ellipse;whiteSpace=wrap;html=1;fontSize=72;rotation=0;" vertex="1" parent="1">
          <mxGeometry x="150" y="-680" width="520" height="320" as="geometry" />
        </mxCell>
        <mxCell id="hG2k1LQKx2OpyA93TZ5e-14" value="&lt;font style=&quot;font-size: 48px;&quot;&gt;Look at all user&#39;s events&amp;nbsp;&lt;/font&gt;" style="ellipse;whiteSpace=wrap;html=1;fontSize=72;rotation=0;" vertex="1" parent="1">
          <mxGeometry x="140" y="-310" width="520" height="320" as="geometry" />
        </mxCell>
        <mxCell id="hG2k1LQKx2OpyA93TZ5e-15" value="&lt;font style=&quot;font-size: 48px;&quot;&gt;Look at all groups that the user is a member&lt;br&gt;&lt;/font&gt;" style="ellipse;whiteSpace=wrap;html=1;fontSize=72;rotation=0;" vertex="1" parent="1">
          <mxGeometry x="140" y="80" width="520" height="320" as="geometry" />
        </mxCell>
        <mxCell id="hG2k1LQKx2OpyA93TZ5e-21" value="" style="endArrow=none;html=1;rounded=0;fontSize=48;" edge="1" parent="1">
          <mxGeometry width="50" height="50" relative="1" as="geometry">
            <mxPoint x="-1150" y="-870" as="sourcePoint" />
            <mxPoint x="170" y="-950" as="targetPoint" />
            <Array as="points" />
          </mxGeometry>
        </mxCell>
        <mxCell id="hG2k1LQKx2OpyA93TZ5e-25" value="" style="endArrow=none;html=1;rounded=0;fontSize=48;entryX=0;entryY=0.5;entryDx=0;entryDy=0;" edge="1" parent="1" target="hG2k1LQKx2OpyA93TZ5e-13">
          <mxGeometry width="50" height="50" relative="1" as="geometry">
            <mxPoint x="-1170" y="-770" as="sourcePoint" />
            <mxPoint x="150" y="-850" as="targetPoint" />
            <Array as="points">
              <mxPoint x="-1170" y="-770" />
            </Array>
          </mxGeometry>
        </mxCell>
        <mxCell id="hG2k1LQKx2OpyA93TZ5e-17" value="&lt;font style=&quot;font-size: 48px;&quot;&gt;Look at user&#39;s most popular post&lt;/font&gt;" style="ellipse;whiteSpace=wrap;html=1;fontSize=72;rotation=0;" vertex="1" parent="1">
          <mxGeometry x="-840" y="-710" width="520" height="320" as="geometry" />
        </mxCell>
        <mxCell id="hG2k1LQKx2OpyA93TZ5e-26" value="" style="endArrow=none;html=1;rounded=0;fontSize=48;" edge="1" parent="1" target="hG2k1LQKx2OpyA93TZ5e-4">
          <mxGeometry width="50" height="50" relative="1" as="geometry">
            <mxPoint x="-1160" y="-830" as="sourcePoint" />
            <mxPoint x="160" y="-910" as="targetPoint" />
            <Array as="points">
              <mxPoint x="-1160" y="-830" />
            </Array>
          </mxGeometry>
        </mxCell>
        <mxCell id="hG2k1LQKx2OpyA93TZ5e-27" value="" style="endArrow=none;html=1;rounded=0;fontSize=48;entryX=0.058;entryY=0.755;entryDx=0;entryDy=0;entryPerimeter=0;" edge="1" parent="1" target="hG2k1LQKx2OpyA93TZ5e-17">
          <mxGeometry width="50" height="50" relative="1" as="geometry">
            <mxPoint x="-1210" y="-360" as="sourcePoint" />
            <mxPoint x="110" y="-380" as="targetPoint" />
            <Array as="points" />
          </mxGeometry>
        </mxCell>
        <mxCell id="hG2k1LQKx2OpyA93TZ5e-29" value="" style="endArrow=none;html=1;rounded=0;fontSize=48;" edge="1" parent="1" target="hG2k1LQKx2OpyA93TZ5e-11">
          <mxGeometry width="50" height="50" relative="1" as="geometry">
            <mxPoint x="-1210" y="-320" as="sourcePoint" />
            <mxPoint x="-759.840000000001" y="-360.0000000000001" as="targetPoint" />
            <Array as="points" />
          </mxGeometry>
        </mxCell>
        <mxCell id="hG2k1LQKx2OpyA93TZ5e-30" value="" style="endArrow=none;html=1;rounded=0;fontSize=48;" edge="1" parent="1" target="hG2k1LQKx2OpyA93TZ5e-14">
          <mxGeometry width="50" height="50" relative="1" as="geometry">
            <mxPoint x="-1210.03" y="-272.34000000000003" as="sourcePoint" />
            <mxPoint x="-360.00214300128414" y="-279.9979086216107" as="targetPoint" />
            <Array as="points" />
          </mxGeometry>
        </mxCell>
        <mxCell id="hG2k1LQKx2OpyA93TZ5e-31" value="" style="endArrow=none;html=1;rounded=0;fontSize=48;entryX=0;entryY=0.5;entryDx=0;entryDy=0;" edge="1" parent="1" target="hG2k1LQKx2OpyA93TZ5e-15">
          <mxGeometry width="50" height="50" relative="1" as="geometry">
            <mxPoint x="-1109.9999999999998" y="-30.000000000000142" as="sourcePoint" />
            <mxPoint x="241.91631607897332" y="73.10171299967519" as="targetPoint" />
            <Array as="points" />
          </mxGeometry>
        </mxCell>
        <mxCell id="hG2k1LQKx2OpyA93TZ5e-16" value="&lt;font style=&quot;font-size: 48px;&quot;&gt;Look at all pages that the user like&lt;br&gt;&lt;/font&gt;" style="ellipse;whiteSpace=wrap;html=1;fontSize=72;rotation=0;" vertex="1" parent="1">
          <mxGeometry x="-360" y="-110" width="520" height="320" as="geometry" />
        </mxCell>
        <mxCell id="hG2k1LQKx2OpyA93TZ5e-33" value="" style="endArrow=none;html=1;rounded=0;fontSize=48;" edge="1" parent="1" target="hG2k1LQKx2OpyA93TZ5e-16">
          <mxGeometry width="50" height="50" relative="1" as="geometry">
            <mxPoint x="-1120" y="-80" as="sourcePoint" />
            <mxPoint x="130" y="190" as="targetPoint" />
            <Array as="points" />
          </mxGeometry>
        </mxCell>
        <mxCell id="hG2k1LQKx2OpyA93TZ5e-19" value="&lt;font style=&quot;font-size: 48px;&quot;&gt;Look at user&#39;s post amount by year&lt;/font&gt;" style="ellipse;whiteSpace=wrap;html=1;fontSize=72;rotation=0;" vertex="1" parent="1">
          <mxGeometry x="-840" y="-290" width="520" height="320" as="geometry" />
        </mxCell>
        <mxCell id="hG2k1LQKx2OpyA93TZ5e-34" value="" style="endArrow=none;html=1;rounded=0;fontSize=48;" edge="1" parent="1" target="hG2k1LQKx2OpyA93TZ5e-19">
          <mxGeometry width="50" height="50" relative="1" as="geometry">
            <mxPoint x="-1140" y="-90" as="sourcePoint" />
            <mxPoint x="130" y="210" as="targetPoint" />
            <Array as="points" />
          </mxGeometry>
        </mxCell>
      </root>
    </mxGraphModel>
  </diagram>
</mxfile>
